<svg xmlns="http://www.w3.org/2000/svg" viewBox="0 0 443.39 118.12"><defs><style>.cls-1{fill:#fff;}</style></defs><title>Asset 1</title><g id="Layer_2" data-name="Layer 2"><g id="Layer_1-2" data-name="Layer 1"><g id="Layer_1_Image" data-name="Layer 1 Image"><path class="cls-1" d="M118.13,59.06h0A59.06,59.06,0,0,0,59.26,0h-.4A59.06,59.06,0,0,0,0,58.85v.4H0a59.06,59.06,0,0,0,58.86,58.87h.4A59.06,59.06,0,0,0,118.13,59.06ZM59.47,116.78H59.4a59.41,59.41,0,0,0-58.05-58v-.07A59.41,59.41,0,0,0,59.4.6h.07a59.41,59.41,0,0,0,58,58.06v.07A59.41,59.41,0,0,0,59.47,116.78Z"/></g><g id="Layer_2_Image" data-name="Layer 2 Image"><path class="cls-1" d="M393,12.13a19.24,19.24,0,0,1,2.53,1.26,7,7,0,0,1,2.63,8.36A7.15,7.15,0,1,1,389,12.51c.29-.11.56-.26.83-.38Z"/><path class="cls-1" d="M242.51,38.8v67.81H233.2V16.31a2.65,2.65,0,0,1,2.89.9Q259.52,44.29,283,71.29l11.41,13.12c.2.24.42.46.82.88v-69h8.9v90.29a2.68,2.68,0,0,1-3-.94Q275.4,76,249.55,46.4l-5.83-6.69-.93-1Z"/><path class="cls-1" d="M377.32,39.73,340.61,71.65l38.87,35h-7c-1.72,0-3.6.42-5.11-.15s-2.65-2.11-3.93-3.25l-28.69-25.7c-.29-.26-.59-.49-1-.86v29.86H325V13.89h8.59V66.48a10.23,10.23,0,0,0,.9-.6Q348.77,53.46,363,41a4.72,4.72,0,0,1,3.52-1.32C370,39.8,373.45,39.73,377.32,39.73Z"/><path class="cls-1" d="M143.66,16.27h45.23v8.8H152.68v28.3h36.18v8.9H152.64v44.36h-9Z"/><path class="cls-1" d="M429.89,106.65h-8.76V47.19H409.38V39.76H421V15.11h8.76V39.68h13.63v7.44h-13.5Z"/><path class="cls-1" d="M203.54,16.25h8.92v90.36h-8.92Z"/><path class="cls-1" d="M395.76,106.63h-8.6V39.79h8.6Z"/></g></g></g></svg>